<svg width="26" height="28" viewBox="0 0 26 28" fill="none" xmlns="http://www.w3.org/2000/svg">
<path d="M17.0474 21.1991C19.7314 20.8807 22.3195 20.2497 24.7743 19.3435C22.7389 17.0841 21.5 14.093 21.5 10.8125V9.81968C21.5002 9.79648 21.5002 9.77325 21.5002 9.75C21.5002 5.05558 17.6947 1.25 13.0002 1.25C8.30582 1.25 4.50024 5.05558 4.50024 9.75L4.49996 10.8125C4.49996 14.093 3.26105 17.0841 1.22559 19.3435C3.68057 20.2498 6.26886 20.8808 8.95302 21.1992M17.0474 21.1991C15.7202 21.3565 14.3695 21.4375 13 21.4375C11.6306 21.4375 10.2801 21.3565 8.95302 21.1992M17.0474 21.1991C17.1791 21.6091 17.2502 22.0462 17.2502 22.5C17.2502 24.8472 15.3475 26.75 13.0002 26.75C10.653 26.75 8.75024 24.8472 8.75024 22.5C8.75024 22.0463 8.82135 21.6091 8.95302 21.1992" stroke="white" stroke-width="2" stroke-linecap="round" stroke-linejoin="round"/>
</svg>
