<svg width="1806" height="588" viewBox="0 0 1806 588" fill="none" xmlns="http://www.w3.org/2000/svg">
<path d="M1612.2 265.62H1580.48V183.663H1612.2V132.902L1739.1 101.177V183.663H1782.99V265.62H1739.1V409.97C1744.39 411.028 1750.21 412.085 1756.55 413.143C1762.9 413.848 1769.6 414.376 1776.65 414.729L1770.83 507.79C1713.02 507.79 1675.3 504.618 1657.68 498.272C1642.87 492.985 1631.59 486.287 1623.84 478.18C1616.08 469.72 1612.2 457.382 1612.2 441.167V265.62Z" fill="#69E9E2"/>
<path d="M1535.88 500.916H1408.97V199.525L1535.88 183.662V500.916Z" fill="#69E9E2"/>
<path d="M1037.56 183.662H1169.75L1205.17 262.447H1208.87L1241.66 183.662H1373.85L1294.53 345.99L1377.02 500.916H1244.83L1205.7 415.257H1202.53L1166.57 500.916H1034.38L1116.87 337.001L1037.56 183.662Z" fill="white"/>
<path d="M694.692 183.662H826.881L862.307 262.447H866.008L898.791 183.662H1030.98L951.667 345.99L1034.15 500.916H901.964L862.836 415.257H859.663L823.708 500.916H691.519L774.005 337.001L694.692 183.662Z" fill="white"/>
<path d="M659.608 500.916H532.706V199.525L659.608 183.663V500.916ZM525.833 123.913C525.833 114.396 526.89 106.464 529.005 100.119C531.12 93.4218 534.821 88.1342 540.109 84.2567C545.397 80.0266 552.623 77.0303 561.788 75.2678C570.953 73.5053 582.586 72.624 596.686 72.624C610.786 72.624 622.242 73.5053 631.055 75.2678C640.22 77.0303 647.446 80.0266 652.734 84.2567C658.022 88.1342 661.723 93.4218 663.838 100.119C665.953 106.464 667.01 114.396 667.01 123.913C667.01 133.431 665.953 141.362 663.838 147.707C661.723 154.052 658.022 159.34 652.734 163.57C647.446 167.448 640.22 170.268 631.055 172.03C622.242 173.44 610.786 174.145 596.686 174.145C586.463 174.145 576.946 173.793 568.133 173.088C559.673 172.383 552.27 170.444 545.925 167.271C539.58 163.746 534.645 158.635 531.12 151.937C527.595 145.24 525.833 135.898 525.833 123.913Z" fill="white"/>
<path d="M336.488 88.4864L463.39 78.9688V409.97C470.087 411.38 476.08 412.437 481.367 413.142C486.655 413.847 491.061 414.376 494.586 414.729L488.77 507.79C434.837 507.79 399.058 504.617 381.433 498.272C366.627 492.985 355.347 486.111 347.592 477.651C340.19 469.191 336.488 457.029 336.488 441.167V88.4864Z" fill="white"/>
<path d="M272.798 259.274V353.921H164.932V500.916H38.0308V104.349H298.179L282.316 205.87H164.932V259.274H272.798Z" fill="white"/>
<path d="M1529.44 94.6948C1546.55 104.746 1546.55 129.474 1529.44 139.525L1456.61 182.335C1439.27 192.522 1417.43 180.025 1417.43 159.92L1417.43 74.2993C1417.43 54.1946 1439.27 41.6971 1456.61 51.8843L1529.44 94.6948Z" fill="#69E9E2"/>
</svg>
