<svg width="1806" height="588" viewBox="0 0 1806 588" fill="none" xmlns="http://www.w3.org/2000/svg">
<g clip-path="url(#clip0_1158_2)">
<path d="M247.873 103.122L248.104 129.142L31.0434 131.064L32.8198 331.691L222.491 330.012L222.721 356.031L33.0502 357.711L35.0691 585.727L4.25607 586L0 105.317L247.873 103.122Z" fill="white"/>
<path d="M341.884 76.1055L346.37 582.808L315.557 583.081L311.071 76.3783L341.884 76.1055Z" fill="white"/>
<path d="M765.345 367.947C765.491 384.38 765.144 396.709 764.303 404.934L443.163 407.778C444.371 441.093 451.924 469.103 465.821 491.806C479.717 514.509 497.9 531.468 520.369 542.682C542.838 553.896 567.311 559.386 593.787 559.152C630.306 558.828 660.812 549.656 685.305 531.635C709.794 513.157 725.096 488.369 731.212 457.271L763.395 456.986C756.426 494.939 737.983 525.918 708.065 549.922C678.143 573.47 640.129 585.448 594.024 585.856C559.331 586.163 528.221 578.678 500.694 563.4C473.167 548.122 451.516 526.172 435.741 497.551C419.962 468.473 411.9 434.533 411.557 395.731C411.213 356.93 418.446 323.083 433.256 294.191C448.522 265.295 469.782 243.193 497.038 227.886C524.29 212.123 555.491 204.086 590.641 203.775C626.247 203.46 657.129 210.947 683.286 226.237C709.896 241.067 730.161 261.203 744.082 286.645C757.999 311.631 765.087 338.731 765.345 367.947ZM734.636 379.86C735.714 346.981 729.533 319.187 716.093 296.48C703.109 273.769 685.385 257.034 662.92 246.277C640.451 235.062 616.206 229.571 590.186 229.801C564.166 230.031 540.023 235.952 517.756 247.562C495.942 258.712 478.06 275.761 464.111 298.711C450.618 321.657 443.561 349.567 442.939 382.443L734.636 379.86Z" fill="white"/>
<path d="M1035.89 576.28L929.675 413.556L828.414 578.117L795.547 578.408L913.714 389.73L793.624 206.586L828.545 206.276L933.359 365.588L1033.28 204.464L1065.46 204.179L948.641 390.106L1070.81 575.971L1035.89 576.28Z" fill="white"/>
<path d="M1336.13 573.622L1229.91 410.898L1128.65 575.459L1095.79 575.75L1213.95 387.072L1093.86 203.927L1128.78 203.618L1233.6 362.93L1333.52 201.805L1365.7 201.52L1248.88 387.447L1371.05 573.312L1336.13 573.622Z" fill="white"/>
<path d="M1511.02 192.591L1514.38 571.933L1418.51 572.782L1415.15 193.44L1511.02 192.591Z" fill="#69E9E2"/>
<path d="M1718.04 269.508L1719.66 453.017C1719.78 465.799 1722.83 475.13 1728.81 481.012C1735.25 486.433 1745.78 489.079 1760.38 488.95L1804.89 488.556L1805.61 569.355L1745.35 569.888C1664.55 570.604 1623.8 531.703 1623.11 453.187L1621.49 270.363L1576.3 270.763L1575.6 192.019L1620.79 191.619L1619.96 97.8104L1716.51 96.9556L1717.34 190.764L1802.25 190.012L1802.95 268.757L1718.04 269.508Z" fill="#69E9E2"/>
<path d="M1525.62 74.7965C1538.75 82.5152 1538.75 101.505 1525.62 109.224L1446.47 155.743C1433.16 163.567 1416.39 153.969 1416.39 138.53L1416.39 45.4906C1416.39 30.0512 1433.16 20.4537 1446.47 28.277L1525.62 74.7965Z" fill="#69E9E2"/>
</g>
<defs>
<clipPath id="clip0_1158_2">
<rect width="1805.61" height="588" fill="white"/>
</clipPath>
</defs>
</svg>
